# xmcd
#
# Track frame offsets:
#	150
#	16650
#	35025
#	54075
#	71675
#	91425
#	104675
#	120000
#	136425
#	156625
#	172350
#
# Disc length: 2434 seconds
#
# Revision: 1
# Processed by: cddbd v1.5.2PL0 Copyright (c) Steve Scherf et al.
# Submitted via: audiograbber 1.83.01
#
DISCID=9609800b
DTITLE=Mox Gowland - The Blue Album
DYEAR=1900
DGENRE=Blues
TTITLE0=Holler For More
TTITLE1=Two O'Clock In The Morning
TTITLE2=Telephone
TTITLE3=Rock'N'Roll SAve My Soul
TTITLE4=Time Has Come
TTITLE5=Mind Is Gone
TTITLE6=Bad News
TTITLE7=No One Could Be Sweeter
TTITLE8=Wait In The Morning
TTITLE9=Tougher
TTITLE10=No Use Complaining
EXTD=
EXTT0=
EXTT1=
EXTT2=
EXTT3=
EXTT4=
EXTT5=
EXTT6=
EXTT7=
EXTT8=
EXTT9=
EXTT10=
PLAYORDER=
